<!DOCTYPE svg PUBLIC "-//W3C//DTD SVG 1.1//EN" "http://www.w3.org/Graphics/SVG/1.1/DTD/svg11.dtd">
<!-- Uploaded to: SVG Repo, www.svgrepo.com, Transformed by: SVG Repo Mixer Tools -->
<svg height="100px" width="100px" version="1.1" id="Capa_1" xmlns="http://www.w3.org/2000/svg" xmlns:xlink="http://www.w3.org/1999/xlink" viewBox="-5.2 -5.2 62.40 62.40" xml:space="preserve" fill="#000000">
<g id="SVGRepo_bgCarrier" stroke-width="0"/>
<g id="SVGRepo_tracerCarrier" stroke-linecap="round" stroke-linejoin="round"/>
<g id="SVGRepo_iconCarrier"> <path style="fill:#ae6b6b;" d="M50.594,45H1.406C0.63,45,0,44.37,0,43.594V32.406C0,31.63,0.63,31,1.406,31h49.187 C51.37,31,52,31.63,52,32.406v11.187C52,44.37,51.37,45,50.594,45z"/> <path style="fill:#9e4747;" d="M6,49L6,49c-1.657,0-3-1.343-3-3v-1h6v1C9,47.657,7.657,49,6,49z"/> <path style="fill:#9e4747;" d="M46,49L46,49c-1.657,0-3-1.343-3-3v-1h6v1C49,47.657,47.657,49,46,49z"/> <circle style="fill:#e9cf72;" cx="48" cy="36" r="1"/> <circle style="fill:#e9cf72;" cx="44" cy="36" r="1"/> <circle style="fill:#e9cf72;" cx="46" cy="40" r="1"/> <circle style="fill:#e9cf72;" cx="42" cy="40" r="1"/> <circle style="fill:#e9cf72;" cx="40" cy="36" r="1"/> <circle style="fill:#e9cf72;" cx="38" cy="40" r="1"/> <circle style="fill:#e9cf72;" cx="36" cy="36" r="1"/> <circle style="fill:#e9cf72;" cx="34" cy="40" r="1"/> <circle style="fill:#e9cf72;" cx="32" cy="36" r="1"/> <circle style="fill:#e9cf72;" cx="30" cy="40" r="1"/> <path style="fill:#e9cf72;" d="M50.594,31H1.406C0.63,31,0,30.37,0,29.594V18.406C0,17.63,0.63,17,1.406,17h49.187 C51.37,17,52,17.63,52,18.406v11.187C52,30.37,51.37,31,50.594,31z"/> <path style="fill:#ae6b6b;" d="M50.594,17H1.406C0.63,17,0,16.37,0,15.594V4.406C0,3.63,0.63,3,1.406,3h49.187 C51.37,3,52,3.63,52,4.406v11.187C52,16.37,51.37,17,50.594,17z"/> <circle style="fill:#ae6b6b;" cx="48" cy="22" r="1"/> <circle style="fill:#ae6b6b;" cx="44" cy="22" r="1"/> <circle style="fill:#ae6b6b;" cx="46" cy="26" r="1"/> <circle style="fill:#ae6b6b;" cx="42" cy="26" r="1"/> <circle style="fill:#ae6b6b;" cx="40" cy="22" r="1"/> <circle style="fill:#ae6b6b;" cx="38" cy="26" r="1"/> <circle style="fill:#ae6b6b;" cx="36" cy="22" r="1"/> <circle style="fill:#ae6b6b;" cx="34" cy="26" r="1"/> <circle style="fill:#ae6b6b;" cx="32" cy="22" r="1"/> <circle style="fill:#ae6b6b;" cx="30" cy="26" r="1"/> <circle style="fill:#e9cf72;" cx="48" cy="8" r="1"/> <circle style="fill:#e9cf72;" cx="44" cy="8" r="1"/> <circle style="fill:#e9cf72;" cx="46" cy="12" r="1"/> <circle style="fill:#e9cf72;" cx="42" cy="12" r="1"/> <circle style="fill:#e9cf72;" cx="40" cy="8" r="1"/> <circle style="fill:#e9cf72;" cx="38" cy="12" r="1"/> <circle style="fill:#e9cf72;" cx="36" cy="8" r="1"/> <circle style="fill:#e9cf72;" cx="34" cy="12" r="1"/> <circle style="fill:#e9cf72;" cx="32" cy="8" r="1"/> <circle style="fill:#e9cf72;" cx="30" cy="12" r="1"/> <circle style="fill:#ae6b6b;" cx="8" cy="10" r="3"/> <circle style="fill:#a4d57b;" cx="8" cy="10" r="2"/> <circle style="fill:#ae6b6b;" cx="8" cy="24" r="3"/> <circle style="fill:#a4d57b;" cx="8" cy="24" r="2"/> <circle style="fill:#ae6b6b;" cx="8" cy="38" r="3"/> <circle style="fill:#a4d57b;" cx="8" cy="38" r="2"/> </g>
</svg>
